<svg width="1024" height="1024" viewBox="0 0 100 100" xmlns="http://www.w3.org/2000/svg"><defs><linearGradient id="bg1" x1="0" y1="0" x2="1" y2="1"><stop offset="0" stop-color="#F7F4FF"/><stop offset="1" stop-color="#E9E3FF"/></linearGradient><clipPath id="tc2"><rect width="100" height="100" rx="22"/></clipPath><radialGradient id="og3" cx=".38" cy=".32" r=".75"><stop offset="0" stop-color="#FFC18A"/><stop offset="1" stop-color="#FF8A3D"/></radialGradient><radialGradient id="og4" cx=".38" cy=".32" r=".75"><stop offset="0" stop-color="#A898FF"/><stop offset="1" stop-color="#7B5CFF"/></radialGradient><filter id="fb5" x="-50%" y="-50%" width="200%" height="200%"><feGaussianBlur stdDeviation="6.5"/></filter><filter id="fs6" x="-50%" y="-50%" width="200%" height="200%"><feGaussianBlur stdDeviation="3.2"/></filter><filter id="fn7" x="0" y="0" width="100%" height="100%"><feTurbulence type="fractalNoise" baseFrequency="1.3" numOctaves="2" stitchTiles="stitch"/><feColorMatrix type="saturate" values="0"/><feComponentTransfer><feFuncA type="table" tableValues="0 0.1"/></feComponentTransfer></filter><clipPath id="pc8"><path d="M34 28 H66 A10 10 0 0 1 76 38 V62 A10 10 0 0 1 66 72 H34 A10 10 0 0 1 24 62 V38 A10 10 0 0 1 34 28 Z"/></clipPath><linearGradient id="hl9" x1="0" y1="0" x2=".6" y2="1"><stop offset="0" stop-color="#fff" stop-opacity="0.55"/><stop offset=".5" stop-color="#fff" stop-opacity="0.12"/><stop offset="1" stop-color="#fff" stop-opacity="0.22"/></linearGradient><linearGradient id="rim10" x1="0" y1="0" x2="1" y2="1"><stop offset="0" stop-color="#fff" stop-opacity="1"/><stop offset=".5" stop-color="#fff" stop-opacity="0.25"/><stop offset="1" stop-color="#fff" stop-opacity="0.7"/></linearGradient></defs><g clip-path="url(#tc2)"><rect width="100" height="100" fill="url(#bg1)"/><circle cx="62" cy="36" r="18" fill="url(#og3)"/><circle cx="36" cy="64" r="15" fill="url(#og4)"/><path d="M34 28 H66 A10 10 0 0 1 76 38 V62 A10 10 0 0 1 66 72 H34 A10 10 0 0 1 24 62 V38 A10 10 0 0 1 34 28 Z" fill="#1A1140" opacity="0.16" filter="url(#fs6)" transform="translate(1.5 4)"/><g clip-path="url(#pc8)"><g filter="url(#fb5)"><circle cx="62" cy="36" r="18" fill="url(#og3)"/><circle cx="36" cy="64" r="15" fill="url(#og4)"/></g><rect width="100" height="100" fill="#FFFFFF" opacity="0.3"/><rect width="100" height="100" fill="url(#hl9)"/><rect width="100" height="100" filter="url(#fn7)"/></g><path d="M34 28 H66 A10 10 0 0 1 76 38 V62 A10 10 0 0 1 66 72 H34 A10 10 0 0 1 24 62 V38 A10 10 0 0 1 34 28 Z" fill="none" stroke="url(#rim10)" stroke-width=".8"/></g></svg>
